<?xml version="1.0" encoding="utf-8"?>
<!-- Generator: Adobe Illustrator 24.0.1, SVG Export Plug-In . SVG Version: 6.00 Build 0)  -->
<svg version="1.1" id="Layer_1" xmlns="http://www.w3.org/2000/svg" xmlns:xlink="http://www.w3.org/1999/xlink" x="0px" y="0px"
	 viewBox="0 0 1024 1024" style="enable-background:new 0 0 1024 1024;" xml:space="preserve">
<g>
	<path fill="white"  d="M462.066,589.141c-45.931,48.542-127.781,25.444-152.366-22.371c20.487-12.259,38.1-27.988,37.935-54.456
		c-0.132-26.138-13.746-44.378-37.472-54.754c1.421-2.776,2.974-5.419,4.659-7.964c1.123-1.718,2.28-3.371,3.503-4.957
		c1.19-1.586,2.478-3.139,3.8-4.659c1.322-1.487,2.677-2.941,4.097-4.362c3.106-3.106,6.444-5.915,9.946-8.459
		c1.718-1.289,3.503-2.478,5.353-3.635c6.146-3.8,12.788-6.873,19.76-9.054c10.475-3.304,21.677-4.659,33.143-3.833h0.033
		c4.857,14.044,9.715,28.12,14.705,42.66c-9.418,6.411-19.099,11.995-27.559,19c-28.979,24.056-29.839,58.62,1.619,79.471
		C407.279,567.729,435.763,577.014,462.066,589.141z"/>
	<path fill="white"  d="M614.564,633.42c-2.346,34.564-16.687,62.552-46.625,81.751c-36.183-51.35-82.511-51.416-110.235-1.487
		c-29.046-11.499-48.31-44.642-48.046-83.469c14.308-4.924,28.913-9.946,43.42-14.936c6.807,9.913,12.358,19.694,19.529,28.12
		c22.503,26.501,55.943,28.682,75.935,0.496c17.348-24.486,27.46-54.159,40.479-80.991
		C603.23,571.793,616.646,602.987,614.564,633.42z"/>
	<path fill="white"  d="M613.209,394.38c-15.002,5.155-28.55,9.847-43.585,15.035c-5.717-8.525-11.235-18.075-18.009-26.567
		c-23.825-30.004-60.14-30.995-80.991,1.024c-15.398,23.626-24.254,51.548-35.919,77.356
		c-35.654-18.273-43.552-112.581,20.487-152.531c11.466,22.899,28.517,39.256,55.646,39.322
		c26.468,0.033,43.387-15.696,54.952-37.935C596.621,328.325,611.127,354.265,613.209,394.38z"/>
	<path  fill="white" d="M715.216,566.044c-20.619,33.044-49.434,47.253-86.377,49.136c-4.791-14.969-9.318-29.145-14.176-44.312
		c8.691-6.245,18.141-11.962,26.402-19.1c30.301-26.072,30.83-58.257-2.511-80.495c-23.428-15.63-51.549-24.155-76.53-35.39
		c32.978-44.213,122.758-32.581,151.771,21.71c-22.206,10.938-38.595,27.922-38.397,53.796
		C675.563,537.097,688.384,556.527,715.216,566.044z"/>
	<path fill="white"  d="M555.481,290.424c0.198,24.287-19.331,43.618-43.948,43.552c-24.783-0.066-43.783-19.199-43.486-43.783
		c0.297-24.453,20.124-43.453,44.675-42.792C536.25,248.062,555.316,267.227,555.481,290.424z"/>
	<path fill="white"  d="M333.789,512.975c-0.496,23.825-19.232,42.627-42.693,42.891c-23.99,0.231-43.849-19.694-43.816-43.982
		c0.033-24.684,19.331-43.783,43.948-43.585C315.648,468.531,334.318,488.126,333.789,512.975z"/>
	<path fill="white"  d="M776.017,511.819c0.099,24.023-20.025,44.246-43.816,44.014c-24.386-0.231-42.759-19.628-42.429-44.741
		c0.33-25.18,19.132-43.387,44.114-42.759C757.314,468.927,775.918,488.126,776.017,511.819z"/>
	<path fill="white"  d="M555.481,734.072c-0.462,22.932-20.124,42.164-43.42,42.462c-24.321,0.264-44.048-19.232-44.015-43.552
		c0.033-24.882,18.769-43.023,44.147-42.759C537.142,690.487,555.977,709.587,555.481,734.072z"/>
</g>
</svg>
